<?xml version="1.0" encoding="utf-8"?>
<!-- Generator: Adobe Illustrator 20.0.0, SVG Export Plug-In . SVG Version: 6.00 Build 0)  -->
<svg version="1.1" id="Ebene_1" xmlns="http://www.w3.org/2000/svg" xmlns:xlink="http://www.w3.org/1999/xlink" x="0px" y="0px"
	 viewBox="0 0 800 339.3" style="enable-background:new 0 0 800 339.3;" xml:space="preserve">
<style type="text/css">
	.st0{fill:none;}
	.st1{fill:#FF8700;}
</style>
<g>
	<rect class="st0" width="800" height="339.3"/>
	<g>
		<path class="st1" d="M211.8,201.5c-2.5,0.7-4.4,1-7,1c-21.1,0-52.2-73.9-52.2-98.4c0-9,2.1-12.1,5.2-14.7
			c-25.9,3-56.9,12.5-66.8,24.6c-2.1,3-3.4,7.8-3.4,13.8c0,38.4,41,125.4,69.9,125.4C170.8,253.2,193.3,231.3,211.8,201.5"/>
		<path class="st1" d="M198.4,86.8c26.7,0,53.5,4.3,53.5,19.4c0,30.6-19.4,67.7-29.3,67.7c-17.7,0-39.7-49.2-39.7-73.7
			C182.8,89,187.2,86.8,198.4,86.8"/>
	</g>
	<g>
		<path d="M341.4,141.1v112.4h-15.7V141.1H298v-13.7h71.1v13.7L341.4,141.1L341.4,141.1z"/>
		<path d="M423.9,194.9v58.5h-16.2v-58.5l-32.2-67.5h17.3l23.8,52.4l23.8-52.4h16.4L423.9,194.9z"/>
		<path d="M506.4,205.9h-15.1v47.5h-15.7V127.4c0,0,15.5-1.3,30.4-1.3c27.4,0,35.3,16.9,35.3,39.1
			C541.4,192.6,532,205.9,506.4,205.9z M508.2,139.1c-9.9,0-16.9,1.1-16.9,1.1v52.6h16.9c10.1,0,17.1-6.7,17.1-26.3
			C525.3,148.4,521,139.1,508.2,139.1z"/>
		<path d="M599.7,254.7c-29.7,0-37.6-21.6-37.6-65.7c0-42.3,7.9-62.9,37.6-62.9c29.7,0,37.6,20.5,37.6,62.9
			C637.4,233.1,629.4,254.7,599.7,254.7z M599.7,139.3c-16.2,0-21.6,11-21.6,50.6c0,38.7,5.4,51.7,21.6,51.7
			c16.2,0,21.6-13,21.6-51.7C621.3,150.2,615.9,139.3,599.7,139.3z"/>
		<path d="M685.8,254.7c-8.8,0-22-2.7-23.6-3.1v-13.5c4.3,0.9,15.5,2.9,23.4,2.9c9.2,0,15.1-7.6,15.1-21.4c0-16.8-2.7-25-15.5-25
			h-14.8v-13.1h13c14.6,0,15.3-14.9,15.3-22.1c0-14.2-4.5-20-13.5-20c-7.9,0-16.9,2-22.2,3.1v-13.2c2-0.4,12.6-3.1,21.8-3.1
			c18.6,0,29.2,7.9,29.2,34.8c0,12.2-3.8,23.1-13.7,26.1c11.7,1.6,15.8,13.2,15.8,30.8C716.2,244.6,705.8,254.7,685.8,254.7z"/>
	</g>
</g>
</svg>
