<?xml version="1.0" encoding="utf-8"?>
<!-- Generator: Adobe Illustrator 20.0.0, SVG Export Plug-In . SVG Version: 6.00 Build 0)  -->
<svg version="1.1" id="Ebene_1" xmlns="http://www.w3.org/2000/svg" xmlns:xlink="http://www.w3.org/1999/xlink" x="0px" y="0px"
	 viewBox="0 0 800 338.1" style="enable-background:new 0 0 800 338.1;" xml:space="preserve">
<style type="text/css">
	.st0{fill:none;}
	.st1{fill:#FFFFFF;}
</style>
<g id="Ebene_1_1_">
	<rect y="-0.6" class="st0" width="798.8" height="338.7"/>
	<g>
		<path class="st1" d="M211.5,200.5c-2.5,0.7-4.4,1-7,1c-21.1,0-52.1-73.7-52.1-98.3c0-9,2.1-12,5.2-14.6
			c-25.8,3-56.8,12.5-66.7,24.5c-2.1,3-3.4,7.7-3.4,13.8c0,38.3,40.9,125.3,69.7,125.3C170.5,252.2,193,230.3,211.5,200.5"/>
		<path class="st1" d="M198,86c26.7,0,53.4,4.3,53.4,19.4c0,30.6-19.4,67.6-29.3,67.6c-17.7,0-39.6-49.1-39.6-73.6
			C182.6,88.2,186.9,86,198,86"/>
	</g>
	<g>
		<path class="st1" d="M340.9,140.2v112.2h-15.6V140.2h-27.7v-13.7h71v13.7H340.9z"/>
		<path class="st1" d="M423.3,194v58.4h-16.2V194l-32.2-67.4h17.3l23.7,52.3l23.7-52.3H456L423.3,194z"/>
		<path class="st1" d="M505.6,204.9h-15.1v47.5h-15.6V126.5c0,0,15.5-1.3,30.4-1.3c27.3,0,35.2,16.9,35.2,39
			C540.5,191.6,531.2,204.9,505.6,204.9z M507.4,138.2c-9.9,0-16.9,1.1-16.9,1.1v52.5h16.9c10.1,0,17.1-6.7,17.1-26.3
			C524.5,147.6,520.2,138.2,507.4,138.2z"/>
		<path class="st1" d="M598.8,253.7c-29.7,0-37.6-21.6-37.6-65.6c0-42.3,7.9-62.8,37.6-62.8c29.7,0,37.6,20.5,37.6,62.8
			C636.4,232.1,628.5,253.7,598.8,253.7z M598.8,138.4c-16.2,0-21.6,11-21.6,50.5c0,38.7,5.4,51.6,21.6,51.6
			c16.2,0,21.6-12.9,21.6-51.6C620.4,149.4,615,138.4,598.8,138.4z"/>
		<path class="st1" d="M684.7,253.7c-8.8,0-21.9-2.7-23.6-3.1v-13.5c4.3,0.9,15.5,2.9,23.4,2.9c9.2,0,15.1-7.6,15.1-21.4
			c0-16.7-2.7-25-15.5-25h-14.7v-13.1h12.9c14.6,0,15.3-14.9,15.3-22.1c0-14.2-4.5-20-13.5-20c-7.9,0-16.9,2-22.1,3.1v-13.1
			c2-0.4,12.6-3.1,21.8-3.1c18.5,0,29.1,7.9,29.1,34.7c0,12.2-3.8,23-13.7,26.1c11.7,1.6,15.8,13.1,15.8,30.8
			C715.1,243.6,704.7,253.7,684.7,253.7z"/>
	</g>
</g>
</svg>
